<?xml version="1.0" standalone="no"?><!DOCTYPE svg PUBLIC "-//W3C//DTD SVG 1.1//EN" "http://www.w3.org/Graphics/SVG/1.1/DTD/svg11.dtd"><svg t="1684490294656" class="icon" viewBox="0 0 2275 1024" version="1.1" xmlns="http://www.w3.org/2000/svg" p-id="29557" width="71.09375" height="32" xmlns:xlink="http://www.w3.org/1999/xlink"><path d="M1801.500444 10.183111h-142.222222c-260.778667 0-474.112 213.333333-474.112 474.055111s213.333333 474.055111 474.112 474.055111h142.222222c260.721778 0 474.055111-213.333333 474.055112-474.055111S2062.222222 10.183111 1801.500444 10.183111z m0 758.499556h-142.222222c-156.444444 0-284.444444-128-284.444444-284.444445s128-284.444444 284.444444-284.444444h142.222222c156.444444 0 284.444444 128 284.444445 284.444444s-128 284.444444-284.444445 284.444445zM616.277333 10.183111h-142.222222C213.333333 10.183111 0 223.516444 0 484.238222s213.333333 474.055111 474.055111 474.055111h142.222222c260.778667 0 474.112-213.333333 474.112-474.055111S877.056 10.183111 616.277333 10.183111z m0 758.499556h-142.222222c-156.444444 0-284.444444-128-284.444444-284.444445s128-284.444444 284.444444-284.444444h142.222222c156.444444 0 284.444444 128 284.444445 284.444444s-128 284.444444-284.444445 284.444445z" fill="#1976D2" p-id="29558"></path><path d="M1564.444444 389.404444h-853.333333c-52.167111 0-94.833778 42.666667-94.833778 94.833778s42.666667 94.833778 94.833778 94.833778h853.333333c52.167111 0 94.833778-42.666667 94.833778-94.833778s-42.666667-94.833778-94.833778-94.833778z" fill="#42A5F5" p-id="29559"></path></svg>