<?xml version="1.0" standalone="no"?><!DOCTYPE svg PUBLIC "-//W3C//DTD SVG 1.1//EN" "http://www.w3.org/Graphics/SVG/1.1/DTD/svg11.dtd"><svg t="1684489515567" class="icon" viewBox="0 0 1024 1024" version="1.1" xmlns="http://www.w3.org/2000/svg" p-id="12565" width="48" height="48" xmlns:xlink="http://www.w3.org/1999/xlink"><path d="M238.043535 989.976066c-43.061916 0-83.567837-16.757967-114.047777-47.181907l-42.721917-42.723917c-62.901877-62.901877-62.925877-165.273677-0.054-228.201554l131.745743-131.739743c30.425941-30.429941 70.945861-47.187908 114.097777-47.187908 34.113933 0 66.63787 10.43798 94.053817 30.187941a7.807985 7.807985 0 0 1 0.953998 11.851977l-73.257857 73.259857a7.799985 7.799985 0 0 1-7.833985 1.935996 46.859908 46.859908 0 0 0-13.915973-2.095996c-12.331976 0-23.935953 4.791991-32.685936 13.491974l-131.719743 131.775743c-17.985965 17.985965-17.961965 47.275908 0.05 65.289872l42.715917 42.715917c8.733983 8.687983 20.32396 13.479974 32.619936 13.479973 6.131988 0 12.081976-1.167998 17.685966-3.471993a47.173908 47.173908 0 0 0 14.96397-10.03798L402.399214 729.618575c12.255976-12.251976 16.639968-30.111941 11.447978-46.613909a7.795985 7.795985 0 0 1 1.925996-7.859985l73.257857-73.257857a7.707985 7.707985 0 0 1 6.137988-2.261995 7.799985 7.799985 0 0 1 5.699989 3.201994c46.525909 64.251875 39.361923 151.821703-17.035967 208.223593l-131.739743 131.737743c-30.425941 30.431941-70.931861 47.187908-114.049777 47.187907z m89.019826-481.425059c-38.981924 0-75.585852 15.13397-103.063798 42.613917l-131.739743 131.737742c-56.789889 56.841889-56.769889 149.311708 0.05 206.133598l42.715916 42.717916c27.527946 27.477946 64.117875 42.613917 103.017799 42.613917 38.949924 0 75.533852-15.13397 103.011799-42.613917l131.739743-131.737743c48.751905-48.753905 56.795889-123.259759 20.593959-180.415647l-63.379876 63.381876c4.801991 20.71796-1.335997 42.439917-16.573967 57.671887l-131.735743 131.737743a62.731877 62.731877 0 0 1-19.987961 13.385974 61.795879 61.795879 0 0 1-23.667954 4.665991c-16.451968 0-31.953938-6.407987-43.639915-18.037965l-42.731916-42.731916c-24.099953-24.099953-24.123953-63.291876-0.05-87.36183l131.735743-131.791742c11.705977-11.645977 27.223947-18.049965 43.705914-18.049965 4.705991 0 9.363982 0.519999 13.895973 1.549997l63.379876-63.379876c-23.051955-14.479972-49.579903-22.089957-77.275849-22.089957z" fill="#1296db" p-id="12566"></path><path d="M238.043535 956.158133c-34.041934 0-66.057871-13.245974-90.157824-37.295928l-42.699916-42.703916c-49.723903-49.721903-49.737903-130.641745-0.04-180.385648l131.729742-131.729743c24.043953-24.043953 56.06989-37.281927 90.187824-37.281927 16.223968 0 31.979938 2.977994 46.663909 8.739983l-39.113924 39.113924a81.023842 81.023842 0 0 0-7.549985-0.35c-21.329958 0-41.409919 8.287984-56.535889 23.333955l-131.785743 131.843742c-31.165939 31.165939-31.145939 81.91384 0.056 113.113779l42.715916 42.715917c15.17197 15.095971 35.231931 23.385954 56.52989 23.385954a79.909844 79.909844 0 0 0 30.55194-6.015988 81.059842 81.059842 0 0 0 25.88195-17.271966l131.831742-131.833743c17.179966-17.175966 25.41595-40.72992 23.143955-64.241874l39.173924-39.173924c18.485964 46.22391 8.241984 100.069805-28.707944 137.021733l-131.739743 131.737742c-24.041953 24.039953-56.051891 37.277927-90.135824 37.277928z" fill="#1296db" p-id="12567"></path><path d="M687.366657 540.648944c-34.087933 0-66.60587-10.45998-94.049816-30.243941a7.797985 7.797985 0 0 1-0.953998-11.849977l73.257857-73.257857a7.799985 7.799985 0 0 1 7.829985-1.935996c16.823967 5.21599 34.575932 0.627999 46.535909-11.329978l131.739742-131.739742c8.723983-8.723983 13.529974-20.30796 13.529974-32.617937 0-12.307976-4.805991-23.893953-13.529974-32.619936l-42.715916-42.715917c-8.723983-8.763983-20.33996-13.583973-32.721936-13.583973-12.275976 0-23.839953 4.805991-32.569937 13.529974l-131.739742 131.739742c-12.213976 12.171976-16.553968 29.987941-11.339978 46.503909a7.811985 7.811985 0 0 1-1.925996 7.869985l-73.257857 73.203857a7.729985 7.729985 0 0 1-6.163988 2.257996 7.805985 7.805985 0 0 1-5.705989-3.241994c-45.397911-63.519876-38.111926-152.953701 16.959967-208.025594l131.739742-131.793742c30.399941-30.393941 70.885862-47.133908 114.001778-47.133908 43.147916 0 83.689837 16.773967 114.153777 47.237907l42.715916 42.717917c30.429941 30.373941 47.187908 70.879862 47.187908 114.049777 0 43.113916-16.757967 83.619837-47.187908 114.049778l-131.739742 131.737742c-30.421941 30.435941-70.921861 47.191908-114.049778 47.191908z m-77.275849-37.747926c23.071955 14.513972 49.599903 22.139957 77.275849 22.139957 38.955924 0 75.539852-15.13397 103.017799-42.613917l131.739743-131.737743c27.477946-27.483946 42.613917-64.067875 42.613917-103.013799 0-38.995924-15.13197-75.579852-42.609917-103.009799l-42.721917-42.723916c-27.517946-27.513946-64.137875-42.665917-103.117798-42.665917-38.945924 0-75.513853 15.11597-102.965799 42.561917l-131.739743 131.793743c-47.547907 47.553907-55.651891 123.477759-20.43596 180.209648l63.329876-63.281877c-4.831991-20.737959 1.269998-42.425917 16.477968-57.579887l131.729743-131.729743c11.675977-11.673977 27.163947-18.103965 43.605915-18.103965 16.569968 0 32.111937 6.451987 43.771914 18.169965l42.699917 42.703917c11.675977 11.673977 18.103965 27.177947 18.103965 43.655914 0 16.479968-6.427987 31.981938-18.103965 43.655915l-131.739743 131.737743c-11.639977 11.639977-27.141947 18.049965-43.655915 18.049964a61.859879 61.859879 0 0 1-13.895972-1.595996l-63.379877 63.377876z" fill="#1296db" p-id="12568"></path><path d="M687.366657 506.83301c-16.213968 0-31.979938-2.989994-46.679908-8.775983l39.093923-39.091923c2.525995 0.244 5.05599 0.365999 7.585985 0.365999 21.375958 0 41.449919-8.303984 56.53189-23.385954l131.739743-131.739743c15.11597-15.11397 23.437954-35.189931 23.437954-56.53189 0-21.343958-8.321984-41.419919-23.437954-56.533889l-42.715917-42.715917c-15.049971-15.13197-35.179931-23.489954-56.633889-23.489954-21.309958 0-41.369919 8.321984-56.47989 23.435954l-131.739743 131.739743a79.419845 79.419845 0 0 0-23.051955 64.147875l-38.895924 38.867924c-17.777965-46.18191-7.605985-100.671803 28.341945-136.623733l131.739743-131.793743c24.007953-24.001953 56.001891-37.223927 90.085824-37.223927 34.117933 0 66.163871 13.259974 90.243824 37.335927l42.715916 42.715916c24.043953 24.003953 37.279927 56.009891 37.279927 90.135824 0 34.083933-13.241974 66.093871-37.283927 90.139824l-131.733743 131.737743c-24.045953 24.041953-56.055891 37.283927-90.143824 37.283927z" fill="#1296db" p-id="12569"></path><path d="M377.757262 731.99257a7.779985 7.779985 0 0 1-5.517989-2.285995l-77.951848-77.949848a7.801985 7.801985 0 0 1 0-11.035978l336.879342-336.877342a7.801985 7.801985 0 0 1 11.035979 0l77.951847 77.949847a7.801985 7.801985 0 0 1 0 11.035979l-336.879342 336.877342a7.779985 7.779985 0 0 1-5.517989 2.285995z m-66.917869-85.755832l66.915869 66.913869L703.598626 387.309244l-66.91587-66.91387L310.839393 646.236738z" fill="#1296db" p-id="12570"></path><path d="M336.589343 646.236738L636.678756 346.151324l41.15992 41.15992-300.085414 300.085413z" fill="#1296db" p-id="12571"></path><path d="M30.92794 687.726657a532.36896 532.36896 0 0 1-5.20799-14.959971l14.815971-4.91399a505.391013 505.391013 0 0 0 5.05599 14.513971l-14.663971 5.35999z m-9.943981-30.095941a528.878967 528.878967 0 0 1-4.261992-15.255971l15.089971-3.973992a496.027031 496.027031 0 0 0 4.141992 14.797971l-14.969971 4.431992z m-8.047984-30.645941a491.259041 491.259041 0 0 1-3.307994-15.503969l15.31397-3.013994a481.759059 481.759059 0 0 0 3.205994 15.01597l-15.21197 3.501993z m-6.131988-31.093939a510.631003 510.631003 0 0 1-2.331996-15.673969l15.47597-2.051996c0.675999 5.08799 1.427997 10.15198 2.261996 15.19197l-15.40597 2.533995zM2.625995 564.478898a518.220988 518.220988 0 0 1-1.361997-15.77997l15.567969-1.107998c0.365999 5.12399 0.807998 10.22798 1.321998 15.311971l-15.52797 1.575997zM0.391999 532.880959c-0.208-5.25799-0.339999-10.537979-0.391999-15.837969l15.60797-0.152c0.05 5.14199 0.172 10.26398 0.381999 15.36397l-15.59797 0.625999z m15.31397-31.349939l-15.607969-0.335999c0.116-5.29599 0.303999-10.573979 0.579999-15.831969l15.587969 0.811998a487.605048 487.605048 0 0 0-0.559999 15.35597z m1.579997-30.69194l-15.557969-1.275997c0.431999-5.28199 0.949998-10.539979 1.543997-15.773969l15.507969 1.757996a505.899012 505.899012 0 0 0-1.493997 15.29197z m3.463993-30.52594l-15.445969-2.235996c0.757999-5.24399 1.595997-10.46198 2.515995-15.649969l15.36397 2.717995a503.175017 503.175017 0 0 0-2.433996 15.16797z m5.32999-30.249941l-15.27797-3.195994c1.087998-5.17999 2.245996-10.33198 3.479993-15.453969l15.17197 3.653992a519.148986 519.148986 0 0 0-3.373993 14.995971z m7.209986-29.861942L18.239964 376.059266a521.038982 521.038982 0 0 1 4.435992-15.207971l14.917971 4.597991a499.739024 499.739024 0 0 0-4.303992 14.751971z m9.059982-29.357942l-14.765971-5.06599a516.362991 516.362991 0 0 1 5.38999-14.953971l14.601971 5.525989a501.321021 501.321021 0 0 0-5.22599 14.493972z m10.897979-28.817944l-14.419972-5.979988c2.031996-4.89999 4.141992-9.759981 6.315988-14.579972l14.225972 6.427988a493.365036 493.365036 0 0 0-6.121988 14.131972z m12.667975-28.065945l-14.013972-6.869987a524.452976 524.452976 0 0 1 7.203986-14.147972l13.799973 7.295986a493.425036 493.425036 0 0 0-6.989987 13.721973z m14.399972-27.213947l-13.565973-7.723985a504.379015 504.379015 0 0 1 8.073984-13.671973l13.311974 8.149984a479.217064 479.217064 0 0 0-7.819985 13.245974z m16.039969-26.249949l-13.057975-8.551983a526.506972 526.506972 0 0 1 8.891983-13.133974l12.793975 8.947982a490.283042 490.283042 0 0 0-8.627983 12.737975z m17.635965-25.20395l-12.509975-9.333982a492.165039 492.165039 0 0 1 9.689981-12.561976l12.203976 9.725981a496.59103 496.59103 0 0 0-9.383982 12.169977z m19.149963-24.051954l-11.899977-10.09598a501.419021 501.419021 0 0 1 10.44598-11.935976l11.573977 10.465979a506.013012 506.013012 0 0 0-10.11998 11.565977z m20.58796-22.823955l-11.259978-10.807979a497.789028 497.789028 0 0 1 11.151978-11.267978l10.913979 11.157978a501.179021 501.179021 0 0 0-10.805979 10.917979zM175.679657 146.913713l-10.577979-11.483978a518.380988 518.380988 0 0 1 11.817976-10.553979l10.211981 11.803977a499.931024 499.931024 0 0 0-11.451978 10.23398z m23.219955-20.111961l-9.857981-12.101976c4.095992-3.329993 8.241984-6.599987 12.437975-9.803981l9.469982 12.401976a506.83501 506.83501 0 0 0-12.049976 9.503981z m24.393952-18.627963l-9.083982-12.691975a511.479001 511.479001 0 0 1 13.011974-9.013983l8.687983 12.961975a511.069002 511.069002 0 0 0-12.615975 8.743983z m25.49195-17.089967l-8.281984-13.225974c4.465991-2.799995 8.983982-5.533989 13.539974-8.193984l7.865984 13.479974a497.121029 497.121029 0 0 0-13.123974 7.939984z m26.477948-15.47397l-7.447985-13.713973a503.253017 503.253017 0 0 1 14.007973-7.333986l7.021986 13.937973a483.427056 483.427056 0 0 0-13.581974 7.109986z m27.375947-13.803973l-6.583987-14.149972a512.564999 512.564999 0 0 1 14.429972-6.449987l6.147988 14.347971a490.549042 490.549042 0 0 0-13.993973 6.251988z m28.153945-12.065976l-5.699989-14.531972c4.89799-1.919996 9.831981-3.767993 14.789971-5.537989l5.25399 14.699971a494.219035 494.219035 0 0 0-14.343972 5.36999z m345.969324-6.115988a504.063016 504.063016 0 0 0-14.577971-4.869991l4.71599-14.877971c5.04599 1.597997 10.05598 3.271994 15.033971 5.021991l-5.17199 14.725971zM359.679298 39.427923l-4.785991-14.855971c5.01999-1.617997 10.07598-3.159994 15.15597-4.623991l4.317992 14.999971a480.851061 480.851061 0 0 0-14.687971 4.479991z m287.797437-5.08599a492.359038 492.359038 0 0 0-14.855971-3.949992l3.779993-15.145971c5.13599 1.281997 10.24398 2.641995 15.32397 4.077992l-4.247992 15.017971z m-258.283495-3.419993l-3.851993-15.125971c5.10599-1.299997 10.24798-2.521995 15.41597-3.671993l3.383994 15.237971c-5.01399 1.113998-9.99398 2.299996-14.947971 3.559993z m228.457554-4.019993a492.039039 492.039039 0 0 0-15.069971-3.019994l2.825995-15.34997c5.21399 0.959998 10.38998 1.999996 15.547969 3.111994l-3.303993 15.25797z m-198.459613-2.627994l-2.905994-15.33397c5.18199-0.979998 10.38998-1.881996 15.619969-2.705995l2.427996 15.41997c-5.07599 0.797998-10.12198 1.669997-15.141971 2.619995z m168.221672-2.939995a489.995043 489.995043 0 0 0-15.227971-2.079996l1.879997-15.497969c5.25799 0.637999 10.497979 1.351997 15.705969 2.145995l-2.357995 15.43197z m-137.881731-1.829996l-1.939996-15.48597a515.098994 515.098994 0 0 1 15.751969-1.729996l1.463997 15.537969c-5.11399 0.481999-10.20598 1.043998-15.27597 1.677997z m107.37579-1.861996c-5.08599-0.459999-10.19798-0.837998-15.32997-1.139998l0.913998-15.58397c5.29399 0.311999 10.567979 0.705999 15.81797 1.175998l-1.401998 15.54797z m-76.78785-1.017998l-0.985998-15.57797c5.25799-0.331999 10.537979-0.583999 15.831969-0.753999l0.497999 15.59797c-5.13199 0.164-10.24798 0.411999-15.34397 0.733999z m46.08991-0.791999l-4.165992-0.104a532.24496 532.24496 0 0 0-10.25398-0.102h-0.969998V0.016h0.969998c3.509993 0 7.031986 0.036 10.55798 0.106l4.307991 0.104-0.445999 15.605969zM504.913014 1023.982l-3.271994-0.056a501.011021 501.011021 0 0 1-12.569975-0.405999l0.701998-15.59397c4.049992 0.182 8.103984 0.311999 12.173977 0.396l3.189993 0.05-0.223999 15.609969z m15.847969-0.018l-0.254-15.607969a495.199033 495.199033 0 0 0 15.36397-0.487999l0.731999 15.593969c-5.25799 0.246-10.537979 0.411999-15.841969 0.501999z m-47.511907-1.383997a518.966986 518.966986 0 0 1-15.791969-1.427997l1.645996-15.52197c5.07999 0.537999 10.18798 0.999998 15.31397 1.387997l-1.167997 15.56197z m79.171845-0.106l-1.219998-15.56397c5.11599-0.397999 10.21798-0.875998 15.293971-1.431997l1.697996 15.51797c-5.23999 0.571999-10.49198 1.063998-15.771969 1.477997z m-110.699784-3.235994a512.364999 512.364999 0 0 1-15.673969-2.399995l2.601995-15.38997c5.03999 0.853998 10.10598 1.627997 15.19797 2.323996l-2.125996 15.465969z m142.197723-0.207999l-2.173996-15.45597c5.08599-0.715999 10.14598-1.509997 15.17597-2.375995l2.651995 15.379969c-5.19399 0.897998-10.40598 1.715997-15.653969 2.451996z m-173.455662-5.07599a519.484985 519.484985 0 0 1-15.491969-3.363994l3.545993-15.20197c4.97999 1.161998 9.983981 2.247996 15.02397 3.261994l-3.077994 15.30397z m204.671601-0.308l-3.129994-15.28797a496.197031 496.197031 0 0 0 14.99997-3.317993l3.607993 15.18797a515.566993 515.566993 0 0 1-15.477969 3.417993z m-235.54354-6.905986a511.927 511.927 0 0 1-15.253971-4.323992l4.491992-14.947971c4.89799 1.469997 9.821981 2.867994 14.785971 4.191992l-4.023992 15.079971z m266.385479-0.413999l-4.075992-15.069971a483.693055 483.693055 0 0 0 14.765971-4.239992l4.541992 14.933971a525.366974 525.366974 0 0 1-15.231971 4.375992z m-296.74942-8.709983c-5.01999-1.681997-9.99998-3.437993-14.953971-5.26599l5.40599-14.643972c4.801991 1.773997 9.637981 3.477993 14.505971 5.10799l-4.95799 14.801972z m327.057361-0.517999l-4.99999-14.785972c4.857991-1.645997 9.679981-3.363993 14.469972-5.15399l5.467989 14.623972a508.179007 508.179007 0 0 1-14.937971 5.31599z m29.653942-11.083979l-5.913988-14.445972a492.105039 492.105039 0 0 0 14.079972-6.023988l6.361988 14.251972a508.829006 508.829006 0 0 1-14.527972 6.217988z m28.859944-12.879975l-6.797987-14.049972a488.873045 488.873045 0 0 0 13.687973-6.891987l7.235986 13.829973a506.539011 506.539011 0 0 1-14.125972 7.111986z m28.021945-14.661971l-7.651985-13.601973a487.303048 487.303048 0 0 0 13.241974-7.727985l8.077984 13.357974a513.494997 513.494997 0 0 1-13.667973 7.971984z m27.075947-16.359968l-8.485983-13.103974a496.58503 496.58503 0 0 0 12.753975-8.535984l8.881983 12.833975c-4.333992 2.999994-8.719983 5.937988-13.149975 8.805983z m26.023949-18.015965l-9.267981-12.559975c4.119992-3.039994 8.185984-6.141988 12.203976-9.305982l9.653981 12.259976a484.627053 484.627053 0 0 1-12.589976 9.605981z m24.871952-19.589962l-10.019981-11.965976c3.927992-3.289994 7.799985-6.637987 11.619978-10.045981l10.385979 11.649978a504.267015 504.267015 0 0 1-11.985976 10.361979z m23.647954-21.087958l-10.751979-11.319978a505.905012 505.905012 0 0 0 10.985978-10.745979l11.085979 10.985978a527.788969 527.788969 0 0 1-11.319978 11.079979z m22.299956-22.513956l-11.421978-10.63998a501.399021 501.399021 0 0 0 10.30998-11.403977l11.737977 10.28398a519.624985 519.624985 0 0 1-10.625979 11.759977z m20.881959-23.845954l-12.051976-9.917981a485.913051 485.913051 0 0 0 9.581981-12.019976l12.355976 9.537981a503.579016 503.579016 0 0 1-9.885981 12.399976z m19.389962-25.099951l-12.641975-9.161982a479.219064 479.219064 0 0 0 8.819983-12.587975l12.925975 8.753983a492.073039 492.073039 0 0 1-9.103983 12.995974z m17.793966-26.257949l-13.179975-8.357983a497.807028 497.807028 0 0 0 8.033985-13.121975l13.433973 7.941985a498.539026 498.539026 0 0 1-8.287983 13.537973z m16.157968-27.327946l-13.677973-7.523986a475.95507 475.95507 0 0 0 7.199986-13.593973l13.911973 7.081986a507.08501 507.08501 0 0 1-7.433986 14.035973z m14.407972-28.287945l-14.115972-6.665987a489.139045 489.139045 0 0 0 6.351987-14.023973l14.317972 6.207988a479.253064 479.253064 0 0 1-6.553987 14.481972z m12.647975-29.151943l-14.501971-5.771989c1.895996-4.759991 3.713993-9.561981 5.457989-14.395972l14.683971 5.29399a498.923026 498.923026 0 0 1-5.639989 14.873971z m10.805979-29.907942l-14.835971-4.84199a505.319013 505.319013 0 0 0 4.537991-14.679971l14.977971 4.383991a506.295011 506.295011 0 0 1-4.679991 15.13797z m8.887983-30.42394l-15.109971-3.897993c1.275998-4.95199 2.479995-9.929981 3.611993-14.93997l15.221971 3.439993a518.420987 518.420987 0 0 1-3.723993 15.39797z m6.959986-30.90994l-15.32397-2.967994a480.199062 480.199062 0 0 0 2.677995-15.12197l15.41597 2.479995a506.70901 506.70901 0 0 1-2.769995 15.609969z m5.04999-31.287939l-15.475969-2.001996c0.655999-5.06599 1.233998-10.15198 1.731996-15.26397l15.53797 1.519997a514.044996 514.044996 0 0 1-1.793997 15.745969z m3.095994-31.525938l-15.567969-1.055998c0.339999-5.09399 0.609999-10.20798 0.797998-15.34397l15.59797 0.579999a510.513003 510.513003 0 0 1-0.827999 15.819969z m1.167998-31.677938l-15.607969-0.072 0.009999-3.301994c0-4.039992-0.05-8.065984-0.147999-12.081976l15.607969-0.369999c0.096 4.137992 0.148 8.291984 0.148 12.453975l-0.01 3.371994z m-16.345968-30.80394c-0.279999-5.13199-0.639999-10.23798-1.071998-15.32597l15.54797-1.331998c0.451999 5.24599 0.823998 10.515979 1.111998 15.80397l-15.58797 0.853998z m-2.621995-30.61794a488.975045 488.975045 0 0 0-2.011996-15.219971l15.43597-2.291995c0.777998 5.21399 1.473997 10.45398 2.083996 15.717969l-15.50797 1.793997z m-4.501991-30.373941c-0.919998-5.05599-1.905996-10.08398-2.967994-15.081971l15.27397-3.241993a522.698979 522.698979 0 0 1 3.047994 15.539969l-15.35397 2.783995z m-6.385988-30.049941a519.416986 519.416986 0 0 0-3.901992-14.863971l15.039971-4.185992a518.698987 518.698987 0 0 1 4.013992 15.32197l-15.151971 3.727993z m-8.255984-29.593942a493.825035 493.825035 0 0 0-4.81199-14.589972l14.745971-5.11599c1.727997 4.98199 3.383993 9.99998 4.96399 15.047971l-14.897971 4.657991z" fill="#1296db" p-id="12572"></path></svg>